HIERARCHY
ROOT newVegas:Hips
{
	OFFSET 0.000000 96.479958 0.000000
	CHANNELS 6 Xposition Yposition Zposition Xrotation Yrotation Zrotation
	JOINT newVegas:Pelvis
	{
		OFFSET 0.000000 0.000000 0.000000
		CHANNELS 3 Xrotation Yrotation Zrotation
		JOINT newVegas:LeftUpLeg
		{
			OFFSET 18.735201 -5.666702 -4.541200
			CHANNELS 3 Xrotation Yrotation Zrotation
			JOINT newVegas:LeftLeg
			{
				OFFSET -0.021200 -31.938179 0.493100
				CHANNELS 3 Xrotation Yrotation Zrotation
				JOINT newVegas:LeftFoot
				{
					OFFSET 0.021200 -31.938179 -4.336299
					CHANNELS 3 Xrotation Yrotation Zrotation
					JOINT newVegas:LeftToeBase
					{
						OFFSET 0.943001 -26.722000 15.023500
						CHANNELS 3 Xrotation Yrotation Zrotation
						End Site
						{
							OFFSET 0.000000 30.670183 0.000000
						}
					}
				}
				JOINT newVegas:Left_PantLeg
				{
					OFFSET 0.663870 -9.044666 -1.108900
					CHANNELS 3 Xrotation Yrotation Zrotation
					End Site
					{
						OFFSET 1.415995 20.635357 0.000000
					}
				}
			}
		}
		JOINT newVegas:RightUpLeg
		{
			OFFSET -18.735201 -5.666702 -4.541200
			CHANNELS 3 Xrotation Yrotation Zrotation
			JOINT newVegas:RightLeg
			{
				OFFSET 0.018946 -31.938133 0.493100
				CHANNELS 3 Xrotation Yrotation Zrotation
				JOINT newVegas:RightFoot
				{
					OFFSET -0.018946 -31.938126 -4.336299
					CHANNELS 3 Xrotation Yrotation Zrotation
					JOINT newVegas:RightToeBase
					{
						OFFSET -0.943001 -26.722004 15.023500
						CHANNELS 3 Xrotation Yrotation Zrotation
						End Site
						{
							OFFSET 0.000000 30.670187 0.000000
						}
					}
				}
				JOINT newVegas:Right_PantLeg
				{
					OFFSET -0.661674 -9.044716 -1.108900
					CHANNELS 3 Xrotation Yrotation Zrotation
					End Site
					{
						OFFSET -1.415958 20.635269 0.000000
					}
				}
			}
		}
	}
	JOINT newVegas:Spine
	{
		OFFSET 0.000000 10.199997 -0.299500
		CHANNELS 3 Xrotation Yrotation Zrotation
		JOINT newVegas:Spine1
		{
			OFFSET 0.000000 11.900002 -1.516600
			CHANNELS 3 Xrotation Yrotation Zrotation
			JOINT newVegas:Spine2
			{
				OFFSET 0.000000 13.600006 -2.842500
				CHANNELS 3 Xrotation Yrotation Zrotation
				JOINT newVegas:Neck
				{
					OFFSET 0.000000 9.624100 -2.890100
					CHANNELS 3 Xrotation Yrotation Zrotation
					JOINT newVegas:Head
					{
						OFFSET 0.000000 14.068802 -1.351900
						CHANNELS 3 Xrotation Yrotation Zrotation
						JOINT newVegas:Hair_Back
						{
							OFFSET 0.000000 3.231903 -17.524799
							CHANNELS 3 Xrotation Yrotation Zrotation
							End Site
							{
								OFFSET 0.000000 19.849884 0.000000
							}
						}
						JOINT newVegas:Hair_Front
						{
							OFFSET 0.000000 31.260406 4.573800
							CHANNELS 3 Xrotation Yrotation Zrotation
							JOINT newVegas:Hair_Front1
							{
								OFFSET 0.000000 2.284103 11.993300
								CHANNELS 3 Xrotation Yrotation Zrotation
								JOINT newVegas:Hair_Front2
								{
									OFFSET 0.000000 2.284103 11.993300
									CHANNELS 3 Xrotation Yrotation Zrotation
									End Site
									{
										OFFSET 0.000000 12.208862 0.000000
									}
								}
							}
						}
						JOINT newVegas:Jowel
						{
							OFFSET 0.000000 -7.458206 6.864100
							CHANNELS 3 Xrotation Yrotation Zrotation
							End Site
							{
								OFFSET 0.000000 19.849884 0.000000
							}
						}
					}
				}
				JOINT newVegas:LeftShoulder
				{
					OFFSET 15.263000 10.923401 -0.547700
					CHANNELS 3 Xrotation Yrotation Zrotation
					JOINT newVegas:LeftArm
					{
						OFFSET 25.438599 -2.830597 -13.032500
						CHANNELS 3 Xrotation Yrotation Zrotation
						JOINT newVegas:LeftForeArm
						{
							OFFSET 29.960503 0.000000 0.000000
							CHANNELS 3 Xrotation Yrotation Zrotation
							JOINT newVegas:LeftHand
							{
								OFFSET 27.849251 0.000000 0.000000
								CHANNELS 3 Xrotation Yrotation Zrotation
								JOINT newVegas:LeftHandThumb1
								{
									OFFSET 4.487587 -3.305161 6.305391
									CHANNELS 3 Xrotation Yrotation Zrotation
									JOINT newVegas:LeftHandThumb2
									{
										OFFSET 5.480453 -3.164139 3.164143
										CHANNELS 3 Xrotation Yrotation Zrotation
										JOINT newVegas:LeftHandThumb3
										{
											OFFSET 5.159721 -2.978973 2.978967
											CHANNELS 3 Xrotation Yrotation Zrotation
											End Site
											{
												OFFSET 2.494507 5.926697 1.738678
											}
										}
									}
								}
								JOINT newVegas:LeftHandIndex1
								{
									OFFSET 18.578728 -0.527832 5.208049
									CHANNELS 3 Xrotation Yrotation Zrotation
									JOINT newVegas:LeftHandIndex2
									{
										OFFSET 3.192009 0.000000 0.000000
										CHANNELS 3 Xrotation Yrotation Zrotation
										JOINT newVegas:LeftHandIndex3
										{
											OFFSET 3.835129 0.000000 0.000000
											CHANNELS 3 Xrotation Yrotation Zrotation
											End Site
											{
												OFFSET -0.034599 3.816971 0.371180
											}
										}
									}
								}
								JOINT newVegas:LeftHandMiddle1
								{
									OFFSET 18.476105 0.000000 0.000000
									CHANNELS 3 Xrotation Yrotation Zrotation
									JOINT newVegas:LeftHandMiddle2
									{
										OFFSET 3.324875 0.000000 0.000000
										CHANNELS 3 Xrotation Yrotation Zrotation
										JOINT newVegas:LeftHandMiddle3
										{
											OFFSET 4.596550 0.000000 0.000000
											CHANNELS 3 Xrotation Yrotation Zrotation
											End Site
											{
												OFFSET 0.057701 4.578827 0.399218
											}
										}
									}
								}
								JOINT newVegas:LeftHandRing1
								{
									OFFSET 17.732719 0.121887 -4.201567
									CHANNELS 3 Xrotation Yrotation Zrotation
									JOINT newVegas:LeftHandRing2
									{
										OFFSET 2.733170 0.000000 0.000000
										CHANNELS 3 Xrotation Yrotation Zrotation
										JOINT newVegas:LeftHandRing3
										{
											OFFSET 3.178268 0.000000 0.000000
											CHANNELS 3 Xrotation Yrotation Zrotation
											End Site
											{
												OFFSET 0.119102 3.170624 0.185394
											}
										}
									}
								}
								JOINT newVegas:LeftHandPinky1
								{
									OFFSET 15.989624 -0.606689 -7.535461
									CHANNELS 3 Xrotation Yrotation Zrotation
									JOINT newVegas:LeftHandPinky2
									{
										OFFSET 2.538986 0.000000 0.000000
										CHANNELS 3 Xrotation Yrotation Zrotation
										JOINT newVegas:LeftHandPinky3
										{
											OFFSET 2.593102 0.000000 0.000000
											CHANNELS 3 Xrotation Yrotation Zrotation
											End Site
											{
												OFFSET -0.150902 2.584198 0.152708
											}
										}
									}
								}
							}
							JOINT newVegas:Left_Sleeve
							{
								OFFSET 0.267448 -0.649796 0.577675
								CHANNELS 3 Xrotation Yrotation Zrotation
								End Site
								{
									OFFSET 0.000000 15.991241 0.000000
								}
							}
							JOINT newVegas:Left_CapeC
							{
								OFFSET 15.715958 -8.608795 -6.935905
								CHANNELS 3 Xrotation Yrotation Zrotation
								JOINT newVegas:Left_CapeC1
								{
									OFFSET 0.000000 -8.688499 0.000000
									CHANNELS 3 Xrotation Yrotation Zrotation
									End Site
									{
										OFFSET 0.000000 8.688499 0.000000
									}
								}
							}
						}
						JOINT newVegas:Left_CapeB
						{
							OFFSET 26.118385 -8.608795 -7.079235
							CHANNELS 3 Xrotation Yrotation Zrotation
							JOINT newVegas:Left_CapeB1
							{
								OFFSET 0.000000 -8.688499 0.000000
								CHANNELS 3 Xrotation Yrotation Zrotation
								End Site
								{
									OFFSET 0.000000 8.688499 0.000000
								}
							}
						}
						JOINT newVegas:Left_CapeA
						{
							OFFSET 5.115639 -8.608795 -10.395809
							CHANNELS 3 Xrotation Yrotation Zrotation
							JOINT newVegas:Left_CapeA1
							{
								OFFSET 0.000000 -8.688499 0.000000
								CHANNELS 3 Xrotation Yrotation Zrotation
								End Site
								{
									OFFSET 0.000000 8.688499 0.000000
								}
							}
						}
					}
				}
				JOINT newVegas:RightShoulder
				{
					OFFSET -15.263000 10.923401 -0.547700
					CHANNELS 3 Xrotation Yrotation Zrotation
					JOINT newVegas:RightArm
					{
						OFFSET -25.438599 -2.830597 -13.032500
						CHANNELS 3 Xrotation Yrotation Zrotation
						JOINT newVegas:RightForeArm
						{
							OFFSET -29.960503 0.000000 0.000000
							CHANNELS 3 Xrotation Yrotation Zrotation
							JOINT newVegas:RightHand
							{
								OFFSET -27.849251 0.000000 0.000000
								CHANNELS 3 Xrotation Yrotation Zrotation
								JOINT newVegas:RightHandThumb1
								{
									OFFSET -4.487587 -3.305161 6.305391
									CHANNELS 3 Xrotation Yrotation Zrotation
									JOINT newVegas:RightHandThumb2
									{
										OFFSET -5.480453 -3.164139 3.164143
										CHANNELS 3 Xrotation Yrotation Zrotation
										JOINT newVegas:RightHandThumb3
										{
											OFFSET -5.159721 -2.978973 2.978967
											CHANNELS 3 Xrotation Yrotation Zrotation
											End Site
											{
												OFFSET -2.494507 5.926697 1.738678
											}
										}
									}
								}
								JOINT newVegas:RightHandIndex1
								{
									OFFSET -18.578728 -0.527832 5.208049
									CHANNELS 3 Xrotation Yrotation Zrotation
									JOINT newVegas:RightHandIndex2
									{
										OFFSET -3.192009 0.000000 0.000000
										CHANNELS 3 Xrotation Yrotation Zrotation
										JOINT newVegas:RightHandIndex3
										{
											OFFSET -3.835129 0.000000 0.000000
											CHANNELS 3 Xrotation Yrotation Zrotation
											End Site
											{
												OFFSET 0.034599 3.816971 0.371180
											}
										}
									}
								}
								JOINT newVegas:RightHandMiddle1
								{
									OFFSET -18.476105 0.000000 0.000000
									CHANNELS 3 Xrotation Yrotation Zrotation
									JOINT newVegas:RightHandMiddle2
									{
										OFFSET -3.324875 0.000000 0.000000
										CHANNELS 3 Xrotation Yrotation Zrotation
										JOINT newVegas:RightHandMiddle3
										{
											OFFSET -4.596550 0.000000 0.000000
											CHANNELS 3 Xrotation Yrotation Zrotation
											End Site
											{
												OFFSET -0.057701 4.578827 0.399218
											}
										}
									}
								}
								JOINT newVegas:RightHandRing1
								{
									OFFSET -17.732719 0.121887 -4.201567
									CHANNELS 3 Xrotation Yrotation Zrotation
									JOINT newVegas:RightHandRing2
									{
										OFFSET -2.733170 0.000000 0.000000
										CHANNELS 3 Xrotation Yrotation Zrotation
										JOINT newVegas:RightHandRing3
										{
											OFFSET -3.178268 0.000000 0.000000
											CHANNELS 3 Xrotation Yrotation Zrotation
											End Site
											{
												OFFSET -0.119102 3.170624 0.185394
											}
										}
									}
								}
								JOINT newVegas:RightHandPinky1
								{
									OFFSET -15.989624 -0.606689 -7.535461
									CHANNELS 3 Xrotation Yrotation Zrotation
									JOINT newVegas:RightHandPinky2
									{
										OFFSET -2.538986 0.000000 0.000000
										CHANNELS 3 Xrotation Yrotation Zrotation
										JOINT newVegas:RightHandPinky3
										{
											OFFSET -2.593102 0.000000 0.000000
											CHANNELS 3 Xrotation Yrotation Zrotation
											End Site
											{
												OFFSET 0.150902 2.584198 0.152708
											}
										}
									}
								}
							}
							JOINT newVegas:Right_CapeC
							{
								OFFSET -15.715958 -8.608795 -6.935905
								CHANNELS 3 Xrotation Yrotation Zrotation
								JOINT newVegas:Right_CapeC1
								{
									OFFSET 0.000000 -8.688499 0.000000
									CHANNELS 3 Xrotation Yrotation Zrotation
									End Site
									{
										OFFSET 0.000000 8.688499 0.000000
									}
								}
							}
							JOINT newVegas:Right_Sleeve
							{
								OFFSET -0.267448 -0.649994 0.577675
								CHANNELS 3 Xrotation Yrotation Zrotation
								End Site
								{
									OFFSET 0.000000 15.991302 0.000000
								}
							}
						}
						JOINT newVegas:Right_CapeA
						{
							OFFSET -5.115540 -8.608795 -10.395824
							CHANNELS 3 Xrotation Yrotation Zrotation
							JOINT newVegas:Right_CapeA1
							{
								OFFSET 0.000000 -8.688499 0.000000
								CHANNELS 3 Xrotation Yrotation Zrotation
								End Site
								{
									OFFSET 0.000000 8.688499 0.000000
								}
							}
						}
						JOINT newVegas:Right_CapeB
						{
							OFFSET -26.118187 -8.608795 -7.079266
							CHANNELS 3 Xrotation Yrotation Zrotation
							JOINT newVegas:Right_CapeB1
							{
								OFFSET 0.000000 -8.688499 0.000000
								CHANNELS 3 Xrotation Yrotation Zrotation
								End Site
								{
									OFFSET 0.000000 8.688499 0.000000
								}
							}
						}
					}
				}
				JOINT newVegas:Left_Collar
				{
					OFFSET 18.625099 8.655502 8.828100
					CHANNELS 3 Xrotation Yrotation Zrotation
					JOINT newVegas:Left_Collar1
					{
						OFFSET 14.783401 10.540405 -1.259500
						CHANNELS 3 Xrotation Yrotation Zrotation
						End Site
						{
							OFFSET 0.000000 18.199875 0.000000
						}
					}
				}
				JOINT newVegas:Collar_Back
				{
					OFFSET 0.000000 15.630707 -20.132601
					CHANNELS 3 Xrotation Yrotation Zrotation
					End Site
					{
						OFFSET 0.000000 22.523010 0.000000
					}
				}
				JOINT newVegas:Left_Peck
				{
					OFFSET 17.239599 -5.132599 25.482599
					CHANNELS 3 Xrotation Yrotation Zrotation
					End Site
					{
						OFFSET 0.000000 22.523010 0.000000
					}
				}
				JOINT newVegas:Right_Peck
				{
					OFFSET -17.239599 -5.132202 25.482599
					CHANNELS 3 Xrotation Yrotation Zrotation
					End Site
					{
						OFFSET 0.000000 22.523010 0.000000
					}
				}
				JOINT newVegas:Right_Collar
				{
					OFFSET -18.625099 8.655792 8.828100
					CHANNELS 3 Xrotation Yrotation Zrotation
					JOINT newVegas:Right_Collar1
					{
						OFFSET -14.783401 10.539993 -1.259500
						CHANNELS 3 Xrotation Yrotation Zrotation
						End Site
						{
							OFFSET 0.000000 18.199631 0.000000
						}
					}
				}
			}
		}
		JOINT newVegas:Belly
		{
			OFFSET 0.000000 -6.540398 9.014299
			CHANNELS 3 Xrotation Yrotation Zrotation
			End Site
			{
				OFFSET 0.000000 11.566666 0.000000
			}
		}
	}
	JOINT newVegas:ElvisFacialAnim_Joint
	{
		OFFSET 1.000000 -95.330101 -8.825800
		CHANNELS 3 Xrotation Yrotation Zrotation
		End Site
		{
			OFFSET 0.000000 35.315800 0.000000
		}
	}
}
MOTION
Frames: 4
Frame Time: 0.033333
-0.754648 85.265266 2.848028 20.147964 -9.985598 6.627326 0.000002 -0.000001 -0.000000 -83.880897 12.582140 7.520911 111.974005 -1.027029 0.907142 2.303242 -0.908892 22.625304 -0.000003 0.000001 0.000001 0.000001 0.000001 0.000000 -20.969545 2.353032 -8.275806 44.153089 7.590312 -4.564799 -36.201635 -1.524985 3.875714 -0.000000 -0.000000 0.000000 -0.000000 0.000000 -0.000000 28.420106 4.603120 -6.236621 2.094687 1.826381 -0.652190 2.078445 1.862280 -0.743079 -2.111813 0.284695 -0.176572 -2.111848 0.284694 -0.176572 -0.000002 -0.000000 -0.000000 -2.111796 0.284697 -0.176572 -2.111837 0.284687 -0.176570 -0.000004 -0.000000 -0.000000 -0.000002 -0.000000 -0.000000 4.698791 9.230972 -16.197213 -6.899329 -15.126151 -58.978950 -20.360012 -53.630557 -9.105420 -1.310214 -26.246032 -6.681045 -2.540160 0.099831 12.393435 16.574455 12.235493 -5.596479 -0.000002 -0.000001 -0.000001 -4.292582 -6.224046 -38.907677 0.002786 -4.398886 -42.159691 -0.000004 -0.000001 -0.000001 -0.650921 -2.111470 -38.946142 -0.044042 -4.883220 -50.793894 -0.000002 0.000000 0.000000 -0.586410 0.231624 -62.614571 -0.855562 -0.960362 -44.526355 -0.000003 -0.000002 -0.000001 -5.907812 -5.340917 -53.176277 -0.044852 -0.065971 -73.346669 -0.000004 -0.000005 0.000004 -0.000000 0.000001 -0.000001 -0.000000 0.000001 -0.000001 -0.000000 0.000001 -0.000001 0.000001 0.000001 0.000002 0.000000 0.000000 0.000000 0.000001 0.000001 0.000002 -0.000000 -0.000001 0.000001 -0.115438 12.230491 -3.663393 -29.978844 2.260691 57.582552 -59.497566 77.081574 55.867792 -1.327183 14.725912 10.431519 24.918374 -21.323340 30.343057 9.041904 8.262094 -18.001797 -0.000001 -0.000000 -0.000000 -0.063507 -3.017248 61.424424 0.006452 4.395149 66.609193 -0.000000 -0.000001 0.000002 -1.221748 -0.129470 68.273697 -0.078707 4.899224 84.501755 0.000000 0.000001 0.000000 0.882083 -4.623035 79.192676 -0.721560 1.141048 73.254366 -0.000000 0.000001 -0.000000 -3.962359 0.099749 86.766837 -0.027284 0.052925 54.416141 0.000002 0.000001 0.000002 0.000000 -0.000001 0.000000 -0.000001 -0.000001 -0.000000 0.000000 -0.000001 -0.000000 0.000001 0.000000 -0.000000 0.000001 0.000000 -0.000000 0.000001 0.000000 -0.000000 0.000001 -0.000000 -0.000000 0.000001 0.000000 -0.000000 0.000001 0.000000 -0.000000 0.000001 0.000000 -0.000000 0.000001 0.000000 -0.000000 0.000001 0.000000 -0.000000 0.000001 0.000000 -0.000000 0.000001 0.000000 -0.000000 -0.000001 0.000000 -0.000000 0.000002 -0.000001 -0.000000 
0.756680 82.298668 7.770521 18.147526 -22.923255 10.013791 0.000000 -0.000000 -0.000000 -88.112712 17.762301 -4.760558 102.150001 8.618599 6.866541 18.055620 -1.488470 25.505060 -0.000003 -0.000001 0.000000 -0.000003 0.000001 0.000001 -16.325503 -4.737375 -20.914908 40.857847 21.322184 -1.999289 -42.652868 -2.141972 5.228861 -0.000000 -0.000000 -0.000000 0.000003 -0.000001 -0.000001 22.221100 7.150475 -2.597140 1.394006 2.206819 -0.422662 1.395842 2.233818 -0.498913 -0.963623 0.966185 -0.354631 -0.963641 0.966191 -0.354640 -0.000000 0.000000 0.000001 -0.963624 0.966181 -0.354630 -0.963643 0.966210 -0.354636 -0.000002 -0.000001 0.000001 -0.000000 0.000000 0.000001 1.973684 4.401971 -12.932394 19.388057 -11.574257 -49.082340 34.417228 -99.360340 48.692726 -1.715377 -3.475216 -6.202263 0.888237 -0.129682 -1.025991 15.996486 12.362975 1.540484 -0.000001 0.000003 -0.000007 -3.640797 -6.946098 -59.879333 0.004737 -4.397269 -54.708442 0.000001 -0.000002 0.000001 -4.168440 -0.641478 -62.628894 -0.056501 -4.891056 -63.597216 -0.000002 0.000000 -0.000002 -3.020268 1.644586 -76.382511 -1.001228 -0.840233 -53.347961 -0.000002 0.000001 0.000004 -9.340903 1.256331 -69.416456 -0.045269 -0.066095 -73.723129 0.000001 -0.000003 -0.000000 0.000002 0.000003 -0.000001 0.000002 0.000003 -0.000001 0.000001 0.000003 -0.000001 -0.000001 0.000001 -0.000000 -0.000001 0.000000 -0.000000 -0.000001 0.000001 -0.000000 -0.000003 0.000000 -0.000002 -0.317635 12.264954 -0.774179 -23.227409 13.401357 52.195681 -9.936554 75.002724 7.763604 -1.222546 12.717432 10.235402 24.918379 -21.323343 30.343061 9.041901 8.262098 -18.001797 0.000002 -0.000001 0.000001 -0.063503 -3.017248 61.424424 0.006451 4.395147 66.609200 0.000000 0.000000 -0.000001 -1.221747 -0.129468 68.273704 -0.078707 4.899227 84.501755 -0.000000 -0.000001 0.000001 0.882084 -4.623034 79.192676 -0.721560 1.141047 73.254366 -0.000001 0.000001 -0.000000 -3.962362 0.099750 86.766837 -0.027282 0.052927 54.416141 0.000000 -0.000000 0.000000 -0.000000 0.000000 0.000001 0.000002 -0.000001 0.000002 -0.000000 0.000000 0.000000 0.000001 0.000001 -0.000000 0.000001 0.000001 0.000000 0.000001 0.000001 -0.000000 0.000001 0.000001 0.000000 0.000004 -0.000000 -0.000000 0.000004 -0.000000 -0.000000 0.000004 -0.000000 -0.000000 0.000004 -0.000000 -0.000000 0.000004 -0.000000 -0.000000 0.000004 -0.000000 -0.000000 0.000004 -0.000000 -0.000000 -0.000000 -0.000000 0.000001 0.000000 -0.000000 -0.000000 
2.573116 79.409737 13.742576 17.160270 -38.936146 16.737780 -0.000001 0.000001 -0.000000 -89.699454 12.657603 -7.971345 94.363305 -3.175479 7.545539 35.629853 0.317055 14.689471 0.000000 0.000000 -0.000000 -0.000001 0.000000 -0.000000 -22.337924 -5.749666 -38.432204 43.762678 39.577234 -3.459046 -45.376041 -3.897090 8.119706 0.000000 0.000001 -0.000000 0.000001 0.000000 -0.000002 17.629799 11.570696 -2.479515 0.864424 3.387934 -0.596278 0.878588 3.423403 -0.670641 -0.091369 1.489034 -0.341679 -0.091349 1.489027 -0.341671 -0.000000 0.000000 -0.000001 -0.091271 1.489035 -0.341678 -0.091444 1.489023 -0.341674 -0.000000 0.000001 -0.000003 -0.000000 0.000000 -0.000000 0.532829 -2.380138 -8.704843 31.853076 -12.604110 -38.153659 14.093776 -115.003365 26.746321 -1.298088 8.527032 -6.745854 4.188434 -0.728134 -12.542597 15.752143 12.616948 7.785696 0.000001 0.000001 -0.000006 -3.574308 -7.698127 -78.201035 0.006680 -4.396265 -65.637974 -0.000001 -0.000001 -0.000001 -5.460446 1.945196 -83.218567 -0.068524 -4.895489 -74.748552 0.000001 -0.000001 0.000000 -4.349432 3.553405 -88.403821 -1.090883 -0.709194 -61.030547 -0.000004 0.000001 0.000001 -9.185362 7.307355 -83.401179 -0.045649 -0.066209 -74.051012 0.000004 -0.000003 -0.000001 -0.000000 -0.000001 -0.000003 -0.000000 -0.000001 -0.000003 0.000000 -0.000001 -0.000003 -0.000000 0.000000 0.000001 0.000000 -0.000001 0.000002 -0.000000 0.000000 0.000001 0.000000 -0.000001 -0.000000 -0.318233 12.412367 2.473263 -17.743356 24.692392 45.336870 16.268116 66.256933 -15.869062 -0.753523 10.985456 10.200818 24.918381 -21.323340 30.343057 9.041908 8.262094 -18.001793 0.000005 -0.000003 0.000001 -0.063505 -3.017248 61.424424 0.006451 4.395151 66.609193 -0.000001 0.000000 -0.000001 -1.221748 -0.129467 68.273697 -0.078707 4.899229 84.501755 0.000000 0.000000 -0.000001 0.882081 -4.623034 79.192683 -0.721557 1.141051 73.254366 0.000001 0.000001 -0.000001 -3.962364 0.099751 86.766837 -0.027279 0.052929 54.416138 0.000002 -0.000000 -0.000001 -0.000000 -0.000002 0.000001 0.000001 -0.000001 -0.000001 -0.000000 -0.000002 0.000000 0.000000 -0.000001 0.000002 0.000001 0.000000 0.000002 0.000000 -0.000001 0.000002 0.000001 0.000000 0.000002 0.000000 -0.000002 0.000001 0.000000 -0.000002 0.000001 0.000000 -0.000002 0.000001 0.000000 -0.000002 0.000001 0.000000 -0.000002 0.000001 0.000000 -0.000002 0.000001 0.000000 -0.000002 0.000001 -0.000000 0.000000 0.000002 -0.000001 0.000001 -0.000000 
5.181963 79.611969 20.085564 21.467532 -59.222624 26.811042 0.000001 0.000001 -0.000000 -81.505802 -0.086034 -5.705859 87.101755 -21.386238 7.115974 34.005084 -2.514516 -6.723973 0.000001 -0.000000 0.000000 0.000001 -0.000000 0.000000 -32.972427 4.450946 -47.487805 38.766695 51.651195 -4.782133 -27.839709 -7.431038 20.148071 0.000000 -0.000002 0.000001 0.000002 0.000002 -0.000001 15.369459 17.024212 -3.266829 0.421744 4.838399 -0.376767 0.440397 4.861353 -0.453470 0.345821 1.640597 -0.460938 0.345841 1.640590 -0.460926 -0.000000 -0.000002 0.000003 0.345912 1.640610 -0.460934 0.345751 1.640592 -0.460937 -0.000000 0.000000 0.000001 -0.000000 -0.000002 0.000003 0.667744 -8.464013 -6.061968 34.762770 -27.163585 -27.341398 13.119648 -123.396725 25.225190 -0.509885 20.310150 -5.203567 4.766509 -0.870664 -14.442469 15.732303 12.674844 8.828575 0.000001 0.000000 0.000001 -3.609599 -7.817622 -81.260523 0.006995 -4.396120 -67.459565 -0.000001 -0.000000 0.000002 -5.482370 2.419656 -86.651625 -0.070597 -4.896022 -76.607108 -0.000001 -0.000000 0.000001 -4.486646 3.914052 -90.411644 -1.102002 -0.685530 -62.310887 0.000000 -0.000004 -0.000002 -8.877483 8.263034 -85.751147 -0.045719 -0.066221 -74.105654 0.000001 -0.000002 -0.000000 0.000002 0.000003 -0.000000 0.000002 0.000003 -0.000000 0.000001 0.000003 -0.000000 -0.000000 -0.000003 0.000003 -0.000001 -0.000003 0.000003 -0.000000 -0.000003 0.000003 -0.000001 -0.000003 0.000003 0.120162 15.618600 3.261938 -10.935497 34.470032 36.073709 22.526406 55.158156 -19.185904 0.069044 6.307733 6.739932 24.918378 -21.323340 30.343054 9.041906 8.262096 -18.001797 -0.000000 -0.000001 0.000001 -0.063502 -3.017248 61.424424 0.006453 4.395148 66.609200 -0.000003 -0.000001 0.000003 -1.221743 -0.129469 68.273697 -0.078707 4.899222 84.501755 -0.000001 -0.000001 -0.000000 0.882085 -4.623035 79.192676 -0.721559 1.141051 73.254373 -0.000003 -0.000001 -0.000002 -3.962359 0.099752 86.766837 -0.027282 0.052925 54.416138 0.000002 -0.000000 0.000001 -0.000003 -0.000001 0.000000 -0.000004 -0.000000 0.000001 -0.000003 -0.000001 0.000001 0.000001 0.000002 0.000000 0.000001 0.000003 0.000002 0.000001 0.000002 0.000000 0.000001 0.000003 0.000003 0.000000 0.000001 0.000001 0.000000 0.000001 0.000001 0.000000 0.000001 0.000001 0.000000 0.000001 0.000001 0.000000 0.000001 0.000001 0.000000 0.000001 0.000001 0.000000 0.000001 0.000001 -0.000002 -0.000001 0.000001 0.000001 0.000001 -0.000000 
